<?xml version="1.0" encoding="UTF-8"?>
<svg id="Ebene_1" xmlns="http://www.w3.org/2000/svg" version="1.1" viewBox="0 0 512 512">
  <!-- Generator: Adobe Illustrator 29.3.1, SVG Export Plug-In . SVG Version: 2.1.0 Build 151)  -->
  <defs>
    <style>
      .st0 {
        fill: #ff4c00;
      }

      .st1 {
        fill: #666;
      }
    </style>
  </defs>
  <g>
    <path d="M78.6,254.9c0-1.9.8-3.7,2.5-5.5,1.2-1.4,2.2-2.7,2.8-3.8.6-1.1,1.2-2.6,1.6-4.5.5-1.9,1-4.8,1.5-8.6l8.1-61h-.4c-3.5,0-6.1.4-7.9,1.3-1.8.9-3.2,1.8-4.1,2.7-.9.9-1.5,1.4-1.7,1.4-.4,0-.7-.4-.7-1.2s.1-1.5.3-2c.8-3.1,2.8-5.7,5.9-7.7,3.1-2,7.4-3,12.9-3s5.7.2,9.5.7c5.8.4,9.3.7,10.5.7,4.2,0,7.3-.4,9.3-1.3,2-.9,3.1-1.3,3.4-1.3s.5,0,.6.2c.1.1.2.4.2.7,0,1.1-.6,2.4-1.7,3.9-1.1,1.5-2.9,2.9-5.2,4-2.3,1.2-5.2,1.7-8.6,1.7s-2.6,0-3.8-.1c-1.2,0-2.3-.2-3.2-.3-3.4-.4-5.7-.5-7.1-.5l-4.3,32.2h20.5c.6,0,.9.3.9.9s-.5,1.7-1.4,3.1c-.9,1.5-2,2.8-3.4,4-1.3,1.2-2.6,1.8-3.9,1.8s-1.3-.2-2.7-.5c-2.6-.8-5.1-1.2-7.3-1.2h-3.6l-3.7,26.2c-.1,1.5-.5,3-.9,4.4-.5,1.4-1,2.5-1.5,3.2h0c1.5.7,3.4,1.1,5.6,1.4,2.2.3,4.2.5,6.1.5,6.5,0,12.2-2,17.3-5.9.2,0,.5-.2.7-.4.3-.2.5-.3.7-.3.5,0,.8.4.8,1.3,0,1.9-1,3.9-2.9,6s-4.5,3.9-7.5,5.4-6.2,2.2-9.4,2.2-5.5-.4-10-1.3c-3.4-.6-5.7-.9-7-.9s-3,.4-4.4,1.1c-1.4.8-2.3,1.1-2.6,1.1s-.7-.3-.7-.9Z"/>
    <path d="M133.9,254.7c-.6-1.6-.9-3.7-.9-6.2s.1-3.7.4-6l6.4-52.7c1.5-12.1,3.4-21.5,5.6-28.1,2.2-6.6,4.8-11.4,7.9-14.3,1.7-1.7,3.6-2.9,5.5-3.7,1.9-.8,4.8-1.8,8.7-2.9,1.8-.4,3-.8,3.5-1.1.5-.3.8-.4,1-.4.5,0,.8.4.8,1.1s-.2.9-.5,1.6c-.3.7-.9,1.5-1.6,2.3-.8.9-1.6,1.5-2.3,1.8-.7.3-1.6.5-2.6.6-4.2.5-7.3,2.1-9.2,4.8-3.6,5-6.2,14.2-7.9,27.7l-8,63c0,.6-.1,1.4-.1,2.3,0,2,.5,2.9,1.4,2.9,2.2,0,4.7-4,7.6-11.9.3-1,.7-1.5,1.2-1.5s.8.6.8,1.9c0,2.9-.9,6.1-2.6,9.5-1.7,3.4-3.7,6.2-6.1,8.5-2.3,2.3-4.4,3.4-6.1,3.4s-2.4-.8-3-2.5Z"/>
    <path d="M164.3,251c0-2.1.2-4.4.7-7.1l5.2-35.7c.3-2.3.4-3.7.4-4.3,0-1.3-.3-2-1-2s-1.9.8-3.2,2.5c-1.2,1.7-2.6,4.4-4,8-.3,1.1-.7,1.6-1.1,1.6s-.7-.4-.7-1.3c0-2.1.8-4.9,2.3-8.2,1.6-3.3,3.5-6.2,5.8-8.7,2.3-2.5,4.4-3.7,6.4-3.7s3.4,2,3.4,5.9-.2,4.3-.7,7.4l-5.7,38.7-.2,1.7c0,1,.3,1.5,1,1.5s1.9-.9,3.2-2.6c1.2-1.7,2.6-4.4,4-8,.4-1,.7-1.5,1.1-1.5s.7.6.7,1.7c0,2.1-.8,4.7-2.3,8-1.6,3.3-3.5,6.1-5.7,8.6-2.3,2.5-4.3,3.7-6.1,3.7s-3.5-2.1-3.5-6.2ZM173.3,183.2l1.3-9.4c.4-2.6,1.1-4.6,2.3-6,1.2-1.4,2.7-2.1,4.5-2.1h.4c.4,0,.7,0,.8.3.1.2.1.5,0,1.1l-1.2,9.2c-.3,2.5-1.1,4.5-2.3,6-1.2,1.5-2.8,2.2-4.6,2.2h-.4c-.7,0-1.1-.4-1-1.3Z"/>
    <path d="M195.7,254.4c-.9-1.8-1.3-4.3-1.3-7.4s.2-4.8.5-7.4c.3-2.6.5-4.2.6-4.8l4.5-34.4h-11c-.4,0-.5-.2-.5-.7,0-.9.8-2.2,2.4-3.8,1.6-1.6,2.8-2.5,3.5-2.5h6.6l1.1-8.3c.3-2.9,1.4-5.6,3.4-7.9,2-2.3,3.9-3.5,5.9-3.5s.5.2.5.7-.3,1.4-1,3.1c-.7,1.7-1.1,3.6-1.4,5.6l-1.3,10.3h10.7c.4,0,.7.3.7.8s-.9,1.9-2.6,3.6c-1.7,1.7-2.8,2.5-3.3,2.5h-6.1l-4.5,34.1c0,.6-.3,2.1-.6,4.5-.3,2.4-.5,4.3-.5,5.6,0,2.9.8,4.4,2.4,4.4s2.4-.7,3.7-2.1c1.3-1.4,2.5-3.3,3.5-5.8,0-.2.2-.4.3-.5.1-.2.2-.3.4-.3.4,0,.5.6.5,1.7,0,1.8-.6,3.9-1.9,6.3-1.3,2.4-2.9,4.5-4.8,6.2-1.9,1.7-3.8,2.5-5.6,2.5s-3.7-.9-4.6-2.7Z"/>
    <path d="M225.1,252.5c-1.9-3.1-2.9-7.3-2.9-12.8s1.3-13.7,3.9-21.2c2.6-7.5,5.9-13.8,10-18.9,4.1-5,8.2-7.6,12.3-7.6s5.7,2.8,5.7,8.4-1.1,9-3.3,13.4c-2.2,4.4-5.1,8.2-8.8,11.6-3.7,3.3-7.7,5.9-12.1,7.7,0,4.8.6,8.3,1.9,10.4,1.3,2.1,3.1,3.2,5.6,3.2s5-1,7.2-3.1c2.2-2.1,4-4.9,5.6-8.4.2-.5.4-1,.7-1.3.2-.4.5-.5.9-.5.6,0,.9.5.9,1.6,0,2.4-1,5.4-2.9,9-2,3.6-4.5,6.6-7.5,9.2-3.1,2.6-6.2,3.9-9.3,3.9s-5.9-1.5-7.8-4.6ZM239.5,223.6c2.1-1.6,3.9-3.9,5.4-6.8,1.5-2.9,2.2-6.1,2.2-9.6s-1.2-6.3-3.6-6.3-3.8,1.3-5.6,3.9c-1.8,2.6-3.3,5.8-4.5,9.6-1.2,3.8-2,7.5-2.5,11.1.4.4,1.3.5,2.5.5,1.9,0,3.9-.8,6.1-2.5Z"/>
    <path class="st0" d="M265.7,254.7c-2.3-1.6-4.1-3.6-5.3-6-1.2-2.3-1.9-4.5-2-6.6,0-1.8.4-3.6,1.2-5.5.8-1.9,1.7-3.4,2.8-4.7,1.1-1.2,1.9-1.9,2.5-1.9s.5.3.5.8c.4,4.9,1.5,9.4,3.3,13.4,1.8,4.1,5.1,6.1,9.8,6.1s6.8-1.4,9.1-4.3c2.3-2.9,3.4-6.8,3.4-11.9s-.5-5.8-1.4-8.4c-.9-2.6-2.5-5.5-4.7-8.7l-10.7-15.5c-1.2-1.9-2.1-3.8-2.7-5.8-.7-2-1-4.4-1-7.3,0-4.6.9-9,2.6-13.1,1.7-4.1,4.3-7.4,7.6-10,3.3-2.5,7.2-3.8,11.7-3.8s6.6.9,9,2.7c2.3,1.8,3.5,4.4,3.5,7.8s-.9,5.6-2.6,9c-.7,1.3-1.4,2-2.2,2s-1-.3-1.1-1c-.2-.7-.3-1.9-.5-3.7-.2-7.1-3.4-10.7-9.4-10.7s-6.5,1.1-8.5,3.4c-2,2.3-3.1,5.4-3.1,9.3s1.3,7.9,4,11.9l10.5,14.9c4.5,6.5,6.8,13.3,6.8,20.5s-1.2,10-3.5,14.5c-2.4,4.5-5.5,8.1-9.3,10.8-3.8,2.7-7.8,4.1-11.9,4.1s-6.1-.8-8.4-2.5Z"/>
    <path class="st0" d="M312.8,251c0-2.1.2-4.4.7-7.1l5.2-35.7c.3-2.3.4-3.7.4-4.3,0-1.3-.3-2-1-2s-1.9.8-3.2,2.5c-1.2,1.7-2.6,4.4-4,8-.3,1.1-.7,1.6-1.1,1.6s-.7-.4-.7-1.3c0-2.1.8-4.9,2.3-8.2,1.6-3.3,3.5-6.2,5.8-8.7,2.3-2.5,4.4-3.7,6.4-3.7s3.4,2,3.4,5.9-.2,4.3-.7,7.4l-5.7,38.7-.2,1.7c0,1,.3,1.5,1,1.5s1.9-.9,3.2-2.6c1.2-1.7,2.6-4.4,4-8,.4-1,.7-1.5,1.1-1.5s.7.6.7,1.7c0,2.1-.8,4.7-2.3,8-1.6,3.3-3.5,6.1-5.7,8.6-2.3,2.5-4.3,3.7-6.1,3.7s-3.5-2.1-3.5-6.2ZM321.7,183.2l1.3-9.4c.4-2.6,1.1-4.6,2.3-6,1.2-1.4,2.7-2.1,4.5-2.1h.4c.4,0,.7,0,.8.3.1.2.1.5,0,1.1l-1.2,9.2c-.3,2.5-1.1,4.5-2.3,6-1.2,1.5-2.8,2.2-4.6,2.2h-.4c-.7,0-1.1-.4-1-1.3Z"/>
    <path class="st0" d="M344.1,254.4c-.9-1.8-1.3-4.3-1.3-7.4s.2-4.8.5-7.4c.3-2.6.5-4.2.6-4.8l4.5-34.4h-11c-.4,0-.5-.2-.5-.7,0-.9.8-2.2,2.4-3.8,1.6-1.6,2.8-2.5,3.5-2.5h6.6l1.1-8.3c.3-2.9,1.4-5.6,3.4-7.9,2-2.3,3.9-3.5,5.9-3.5s.5.2.5.7-.3,1.4-1,3.1c-.7,1.7-1.1,3.6-1.4,5.6l-1.3,10.3h10.7c.4,0,.7.3.7.8s-.9,1.9-2.6,3.6c-1.7,1.7-2.8,2.5-3.3,2.5h-6.1l-4.5,34.1c0,.6-.3,2.1-.6,4.5-.3,2.4-.5,4.3-.5,5.6,0,2.9.8,4.4,2.4,4.4s2.4-.7,3.7-2.1c1.3-1.4,2.5-3.3,3.5-5.8,0-.2.2-.4.3-.5.1-.2.2-.3.4-.3.4,0,.5.6.5,1.7,0,1.8-.6,3.9-1.9,6.3-1.3,2.4-2.9,4.5-4.8,6.2-1.9,1.7-3.8,2.5-5.6,2.5s-3.7-.9-4.6-2.7Z"/>
    <path class="st0" d="M373.6,252.5c-1.9-3.1-2.9-7.3-2.9-12.8s1.3-13.7,3.9-21.2c2.6-7.5,5.9-13.8,10-18.9,4.1-5,8.2-7.6,12.3-7.6s5.7,2.8,5.7,8.4-1.1,9-3.3,13.4c-2.2,4.4-5.1,8.2-8.8,11.6-3.7,3.3-7.7,5.9-12.1,7.7,0,4.8.6,8.3,1.9,10.4,1.3,2.1,3.1,3.2,5.6,3.2s5-1,7.2-3.1c2.2-2.1,4-4.9,5.6-8.4.2-.5.4-1,.7-1.3.2-.4.5-.5.9-.5.6,0,.9.5.9,1.6,0,2.4-1,5.4-2.9,9-2,3.6-4.5,6.6-7.5,9.2s-6.2,3.9-9.3,3.9-5.9-1.5-7.8-4.6ZM388,223.6c2.1-1.6,3.9-3.9,5.4-6.8,1.5-2.9,2.2-6.1,2.2-9.6s-1.2-6.3-3.6-6.3-3.8,1.3-5.6,3.9c-1.8,2.6-3.3,5.8-4.5,9.6-1.2,3.8-2,7.5-2.5,11.1.4.4,1.3.5,2.5.5,1.9,0,3.9-.8,6.1-2.5Z"/>
    <path class="st0" d="M409.4,254.9c-1.6-1.5-2.7-3.5-3.2-6-.1-.7,0-1.9.7-3.4.6-1.6,1.4-3.1,2.5-4.6.6-.8,1.1-1.2,1.4-1.2s.7.4.9,1.1c2.2,6.2,5.2,9.4,9.1,9.4s3.5-.7,4.6-2.2c1.1-1.5,1.7-3.5,1.7-6s-1.6-7.8-4.7-13.1l-2.3-4c-1.7-3-3-5.5-3.7-7.5-.7-2-1-4.1-1-6.3,0-3.6.8-6.8,2.3-9.6,1.6-2.9,3.6-5.1,6.2-6.8,2.5-1.6,5.2-2.5,8-2.5,5.2,0,7.9,2.2,7.9,6.6s-.5,3.2-1.4,4.8c-.5,1.1-.9,1.6-1.3,1.6s-.8-.5-1.2-1.6c-.8-1.7-1.8-2.9-2.9-3.7-1.1-.8-2.6-1.1-4.3-1.1s-3.7.7-4.9,2c-1.2,1.3-1.9,3-1.9,5.1s.3,2.5.9,3.9c.6,1.5,1.8,3.7,3.5,6.8l2.3,3.9c2,3.3,3.5,6.1,4.3,8.5.8,2.4,1.2,4.8,1.2,7.4s-.9,6.6-2.6,9.8c-1.7,3.3-4.1,5.9-7,8-2.9,2.1-6,3.1-9.3,3.1s-4.2-.8-5.8-2.3Z"/>
  </g>
  <g>
    <path d="M85.1,296.4l-5.6-22.2h2.8l4.4,18.5,4.4-18.5h2.9l4.4,18.5,4.4-18.5h2.9l-5.6,22.2h-3.3l-4.2-17.2-4.2,17.2h-3.2Z"/>
    <path d="M108.9,296.4v-22.2h13.4v2.6h-10.8v7.1h10.5v2.6h-10.5v7.2h11.1v2.6h-13.7Z"/>
    <path d="M126.8,296.4v-22.2h7.3c2.5,0,4.4.5,5.7,1.4,1.3,1,1.9,2.5,1.9,4.5s-.2,1.8-.6,2.5-1,1.3-1.7,1.7c-.7.4-1.6.6-2.6.6v-.2c1.8,0,3.2.5,4.3,1.5,1.1,1,1.6,2.3,1.6,3.9s-.6,3.5-1.9,4.6-3.1,1.5-5.4,1.5h-8.5ZM129.3,283.8h4.8c1.6,0,2.8-.3,3.6-.9.8-.6,1.3-1.5,1.3-2.6s-.4-2-1.2-2.6c-.8-.6-2-.9-3.7-.9h-4.8v7ZM129.3,293.8h6c1.5,0,2.6-.3,3.4-.9.8-.6,1.2-1.5,1.2-2.7s-.4-2.1-1.2-2.7c-.8-.7-1.9-1-3.4-1h-6v7.3Z"/>
    <path d="M147,296.4v-22.2h6.6c3.3,0,5.8,1,7.6,2.9,1.8,1.9,2.7,4.7,2.7,8.2s-.9,6.3-2.6,8.2c-1.7,1.9-4.2,2.9-7.5,2.9h-6.8ZM149.6,293.8h4c2.5,0,4.4-.7,5.7-2.1s1.9-3.5,1.9-6.3-.6-5-1.9-6.4c-1.3-1.4-3.2-2.1-5.7-2.1h-4v16.9Z"/>
    <path d="M167.6,296.4v-22.2h13.4v2.6h-10.8v7.1h10.5v2.6h-10.5v7.2h11.1v2.6h-13.7Z"/>
    <path d="M193.1,296.9c-1.6,0-3.1-.3-4.3-1-1.2-.6-2.2-1.5-2.9-2.7-.7-1.1-1.1-2.5-1.2-3.9l2.7-.2c.1,1.1.5,2,.9,2.8.5.8,1.1,1.4,1.9,1.7.8.4,1.8.6,2.9.6s1.9-.1,2.6-.4c.7-.3,1.2-.7,1.6-1.2.4-.5.6-1.2.6-1.9s-.2-1.3-.5-1.8c-.3-.5-.9-1-1.8-1.5-.9-.4-2.2-.9-3.9-1.3-1.6-.4-3-.9-3.9-1.4-1-.5-1.7-1.2-2.1-1.9-.4-.7-.6-1.7-.6-2.8s.3-2.3.9-3.3c.6-.9,1.4-1.7,2.5-2.2,1.1-.5,2.3-.8,3.8-.8s2.9.3,4,.9c1.1.6,2,1.5,2.7,2.5.7,1.1,1.1,2.3,1.2,3.6l-2.7.2c-.1-.9-.4-1.7-.8-2.4-.4-.7-1-1.2-1.8-1.6-.7-.4-1.6-.6-2.7-.6s-2.4.3-3.2,1c-.8.7-1.2,1.5-1.2,2.6s.2,1.3.5,1.7c.3.4.9.8,1.7,1.2.8.3,2,.7,3.5,1.1,1.8.5,3.2,1,4.3,1.6,1.1.6,1.8,1.4,2.3,2.2.5.8.7,1.8.7,2.8s-.3,2.4-1,3.4c-.6.9-1.5,1.7-2.6,2.2-1.1.5-2.4.8-3.9.8Z"/>
    <path d="M204.6,296.4v-22.2h2.6v22.2h-2.6Z"/>
    <path d="M220.4,296.9c-2,0-3.7-.5-5.1-1.5-1.4-1-2.5-2.4-3.3-4.1s-1.1-3.7-1.1-5.9.4-4.2,1.1-6c.8-1.7,1.9-3.1,3.3-4.1,1.4-1,3.2-1.5,5.2-1.5s3.1.3,4.3,1c1.2.6,2.1,1.5,2.8,2.6s1.2,2.3,1.4,3.7l-2.7.2c-.3-1.4-.8-2.6-1.7-3.5-.9-.9-2.3-1.4-4.1-1.4s-2.9.4-4,1.2c-1,.8-1.8,1.9-2.2,3.3-.5,1.4-.7,2.8-.7,4.4s.2,3.2.7,4.5c.5,1.3,1.2,2.4,2.3,3.2,1,.8,2.3,1.2,3.9,1.2s2.4-.3,3.3-.9c.9-.6,1.6-1.4,2.1-2.4.5-1,.8-2.1.8-3.2h-6.1v-2.6h8.5v11.2h-1.9l-.2-5.1.4.4c-.2,1-.7,1.9-1.4,2.7-.7.8-1.5,1.4-2.5,1.8-1,.4-2,.7-3.1.7Z"/>
    <path d="M233.3,296.4v-22.2h3.7l10.6,19.5v-19.5h2.6v22.2h-3.9l-10.4-19.1v19.1h-2.6Z"/>
    <path d="M263.2,299.8v-26.8h2.4v26.8h-2.4Z"/>
    <path d="M286.1,296.9c-1.6,0-3.1-.3-4.3-1-1.2-.6-2.2-1.5-2.9-2.7-.7-1.1-1.1-2.5-1.2-3.9l2.7-.2c.1,1.1.5,2,.9,2.8.5.8,1.1,1.4,1.9,1.7.8.4,1.8.6,2.9.6s1.9-.1,2.6-.4c.7-.3,1.2-.7,1.6-1.2s.6-1.2.6-1.9-.2-1.3-.5-1.8c-.3-.5-.9-1-1.8-1.5s-2.2-.9-3.9-1.3c-1.6-.4-3-.9-3.9-1.4-1-.5-1.7-1.2-2.1-1.9s-.6-1.7-.6-2.8.3-2.3.9-3.3c.6-.9,1.4-1.7,2.5-2.2,1.1-.5,2.3-.8,3.8-.8s2.9.3,4,.9c1.1.6,2,1.5,2.7,2.5.7,1.1,1.1,2.3,1.2,3.6l-2.7.2c-.1-.9-.4-1.7-.8-2.4s-1-1.2-1.8-1.6c-.7-.4-1.6-.6-2.7-.6s-2.4.3-3.2,1c-.8.7-1.2,1.5-1.2,2.6s.2,1.3.5,1.7c.3.4.9.8,1.7,1.2.8.3,2,.7,3.5,1.1,1.8.5,3.2,1,4.3,1.6s1.8,1.4,2.3,2.2c.5.8.7,1.8.7,2.8s-.3,2.4-1,3.4c-.6.9-1.5,1.7-2.6,2.2-1.1.5-2.4.8-3.9.8Z"/>
    <path d="M297.6,296.4v-22.2h13.4v2.6h-10.8v7.1h10.5v2.6h-10.5v7.2h11.1v2.6h-13.7Z"/>
    <path d="M324,296.9c-2,0-3.8-.5-5.2-1.4-1.5-.9-2.6-2.3-3.4-4-.8-1.7-1.2-3.8-1.2-6.2s.4-4.5,1.2-6.2c.8-1.7,1.9-3.1,3.4-4,1.5-.9,3.2-1.4,5.2-1.4s3.8.5,5.3,1.4c1.5.9,2.6,2.3,3.4,4,.8,1.7,1.2,3.8,1.2,6.2s-.4,4.5-1.2,6.2c-.8,1.7-1.9,3.1-3.4,4s-3.2,1.4-5.3,1.4ZM324,294.3c1.5,0,2.8-.4,3.8-1.1,1.1-.7,1.9-1.7,2.4-3.1.6-1.3.8-2.9.8-4.8s-.3-3.5-.8-4.8c-.6-1.3-1.4-2.4-2.4-3.1-1.1-.7-2.3-1.1-3.8-1.1s-2.7.4-3.8,1.1c-1.1.7-1.9,1.7-2.4,3.1-.6,1.3-.8,2.9-.8,4.8s.3,3.5.8,4.8c.6,1.3,1.4,2.4,2.4,3.1,1.1.7,2.3,1.1,3.8,1.1Z"/>
    <path d="M345.5,299.8v-26.8h2.4v26.8h-2.4Z"/>
    <path d="M360.9,296.4v-22.2h2.6v20.9l-1.3-1.4h12v2.6h-13.3Z"/>
    <path d="M385.2,296.9c-2,0-3.8-.5-5.2-1.4s-2.6-2.3-3.4-4c-.8-1.7-1.2-3.8-1.2-6.2s.4-4.5,1.2-6.2c.8-1.7,1.9-3.1,3.4-4,1.5-.9,3.2-1.4,5.2-1.4s3.8.5,5.3,1.4c1.5.9,2.6,2.3,3.4,4,.8,1.7,1.2,3.8,1.2,6.2s-.4,4.5-1.2,6.2c-.8,1.7-1.9,3.1-3.4,4s-3.2,1.4-5.3,1.4ZM385.2,294.3c1.5,0,2.8-.4,3.8-1.1,1.1-.7,1.9-1.7,2.4-3.1.6-1.3.8-2.9.8-4.8s-.3-3.5-.8-4.8c-.6-1.3-1.4-2.4-2.4-3.1-1.1-.7-2.3-1.1-3.8-1.1s-2.7.4-3.8,1.1c-1.1.7-1.9,1.7-2.4,3.1-.6,1.3-.8,2.9-.8,4.8s.3,3.5.8,4.8c.6,1.3,1.4,2.4,2.4,3.1,1.1.7,2.3,1.1,3.8,1.1Z"/>
    <path d="M407.3,296.9c-2,0-3.7-.5-5.1-1.5-1.4-1-2.5-2.4-3.3-4.1s-1.1-3.7-1.1-5.9.4-4.2,1.1-6,1.9-3.1,3.3-4.1c1.4-1,3.2-1.5,5.2-1.5s3.1.3,4.3,1c1.2.6,2.1,1.5,2.8,2.6s1.2,2.3,1.4,3.7l-2.7.2c-.3-1.4-.8-2.6-1.7-3.5-.9-.9-2.3-1.4-4.1-1.4s-2.9.4-4,1.2c-1,.8-1.8,1.9-2.2,3.3-.5,1.4-.7,2.8-.7,4.4s.2,3.2.7,4.5c.5,1.3,1.2,2.4,2.3,3.2,1,.8,2.3,1.2,3.9,1.2s2.4-.3,3.3-.9,1.6-1.4,2.1-2.4c.5-1,.8-2.1.8-3.2h-6.1v-2.6h8.5v11.2h-1.9l-.2-5.1.4.4c-.2,1-.7,1.9-1.4,2.7-.7.8-1.5,1.4-2.5,1.8s-2,.7-3.1.7Z"/>
    <path d="M428.5,296.9c-2,0-3.8-.5-5.2-1.4s-2.6-2.3-3.4-4c-.8-1.7-1.2-3.8-1.2-6.2s.4-4.5,1.2-6.2c.8-1.7,1.9-3.1,3.4-4,1.5-.9,3.2-1.4,5.2-1.4s3.8.5,5.3,1.4c1.5.9,2.6,2.3,3.4,4,.8,1.7,1.2,3.8,1.2,6.2s-.4,4.5-1.2,6.2c-.8,1.7-1.9,3.1-3.4,4s-3.2,1.4-5.3,1.4ZM428.5,294.3c1.5,0,2.8-.4,3.8-1.1,1.1-.7,1.9-1.7,2.4-3.1.6-1.3.8-2.9.8-4.8s-.3-3.5-.8-4.8c-.6-1.3-1.4-2.4-2.4-3.1-1.1-.7-2.3-1.1-3.8-1.1s-2.7.4-3.8,1.1c-1.1.7-1.9,1.7-2.4,3.1-.6,1.3-.8,2.9-.8,4.8s.3,3.5.8,4.8c.6,1.3,1.4,2.4,2.4,3.1,1.1.7,2.3,1.1,3.8,1.1Z"/>
  </g>
  <g>
    <path class="st1" d="M153.6,326.9c-.8,0-1.5-.1-2.1-.4-.7-.3-1.3-.7-1.8-1.2-.5-.5-.9-1.1-1.2-1.8s-.4-1.4-.4-2.1.1-1.5.4-2.2.7-1.3,1.2-1.8c.5-.5,1.1-.9,1.8-1.2.7-.3,1.4-.4,2.1-.4s1.5.1,2.2.4c.7.3,1.3.7,1.8,1.2.5.5.9,1.1,1.2,1.8.3.7.4,1.4.4,2.2s-.1,1.5-.4,2.1c-.3.7-.7,1.3-1.2,1.8-.5.5-1.1.9-1.8,1.2-.7.3-1.4.4-2.2.4ZM153.6,325.7c.6,0,1.1-.1,1.7-.3.5-.2,1-.5,1.4-.9.4-.4.7-.9.9-1.4.2-.5.3-1.1.3-1.7s-.1-1.2-.3-1.7c-.2-.5-.5-1-.9-1.4-.4-.4-.9-.7-1.4-.9-.5-.2-1.1-.3-1.7-.3s-1.1.1-1.7.3-1,.5-1.4.9c-.4.4-.7.9-.9,1.4-.2.5-.3,1.1-.3,1.7s.1,1.2.3,1.7c.2.5.5,1,.9,1.4.4.4.9.7,1.4.9s1.1.3,1.7.3ZM153.6,324.6c-.6,0-1.1-.1-1.6-.4-.5-.3-.8-.6-1.1-1.1-.3-.5-.4-1-.4-1.7s.1-1.2.4-1.6c.3-.5.6-.8,1.1-1.1.5-.3,1-.4,1.6-.4s.9,0,1.3.3.7.5,1,.8c.2.4.4.8.4,1.2h-1.2c0-.3-.2-.6-.5-.9s-.6-.4-1-.4-.7,0-1,.3c-.3.2-.5.4-.7.7-.2.3-.2.7-.2,1.1s0,.8.2,1.1c.2.3.4.6.7.8.3.2.6.3,1,.3s.5,0,.8-.2.4-.3.6-.5.2-.5.3-.7h1.2c0,.5-.2,1-.5,1.3-.3.4-.6.7-1,.9-.4.2-.9.3-1.4.3Z"/>
    <path class="st1" d="M164.4,326.8c0-.8.1-1.4.4-2,.2-.6.6-1.2,1.2-1.7.6-.5,1.4-1.1,2.5-1.7.5-.3.9-.5,1.2-.7.3-.2.5-.5.7-.7.1-.2.2-.6.2-.9s0-.7-.2-1-.4-.5-.7-.7-.7-.2-1.2-.2c-.8,0-1.3.2-1.8.6s-.7.9-.8,1.7h-1.4c.1-1.1.5-2,1.2-2.6.7-.6,1.6-.9,2.7-.9s1.4.1,1.9.4c.5.3.9.6,1.2,1.1.3.5.4,1,.4,1.6s0,1-.3,1.4c-.2.4-.5.8-.9,1.1-.4.3-1,.7-1.7,1.1-1,.5-1.7,1-2.2,1.5-.5.5-.8,1-.8,1.4h5.9v1.3h-7.5Z"/>
    <path class="st1" d="M177.6,327c-.9,0-1.6-.2-2.2-.7-.6-.5-1.1-1.1-1.5-1.9-.3-.8-.5-1.8-.5-3s.2-2.1.5-3,.8-1.5,1.5-1.9c.6-.5,1.4-.7,2.2-.7s1.6.2,2.2.7,1.1,1.1,1.5,1.9c.3.8.5,1.8.5,3s-.2,2.1-.5,3c-.3.8-.8,1.5-1.5,1.9-.6.4-1.4.7-2.2.7ZM177.6,325.7c.9,0,1.6-.4,2.1-1.1s.8-1.8.8-3.2-.1-1.7-.3-2.3c-.2-.6-.6-1.1-1-1.5-.4-.3-.9-.5-1.6-.5s-1.1.2-1.6.5c-.4.3-.8.8-1,1.5-.2.6-.3,1.4-.3,2.3,0,1.4.2,2.4.8,3.2s1.2,1.1,2.1,1.1Z"/>
    <path class="st1" d="M183.3,326.8c0-.8.1-1.4.4-2,.2-.6.6-1.2,1.2-1.7.6-.5,1.4-1.1,2.5-1.7.5-.3.9-.5,1.2-.7.3-.2.5-.5.7-.7.1-.2.2-.6.2-.9s0-.7-.2-1-.4-.5-.7-.7c-.3-.2-.7-.2-1.2-.2-.8,0-1.3.2-1.8.6-.4.4-.7.9-.8,1.7h-1.3c.1-1.1.5-2,1.2-2.6.7-.6,1.6-.9,2.7-.9s1.4.1,1.9.4c.5.3.9.6,1.2,1.1.3.5.4,1,.4,1.6s0,1-.3,1.4c-.2.4-.5.8-.9,1.1-.4.3-1,.7-1.7,1.1-1,.5-1.7,1-2.2,1.5-.5.5-.8,1-.8,1.4h5.9v1.3h-7.5Z"/>
    <path class="st1" d="M196.4,327c-.8,0-1.4-.1-1.9-.4s-1-.6-1.3-1c-.3-.5-.5-1-.5-1.6h1.3c0,.5.3,1,.8,1.3.4.3,1,.5,1.7.5s1.3-.2,1.8-.6.7-1,.7-1.8,0-.9-.3-1.3c-.2-.4-.5-.6-.8-.8-.4-.2-.8-.3-1.3-.3s-.9.1-1.3.3c-.4.2-.7.5-.9.9h-1.4l.7-6h6v1.3h-4.8l-.5,3.9-.2-.2c.2-.3.4-.6.6-.8.3-.2.6-.4.9-.5.3-.1.7-.2,1.1-.2.7,0,1.3.2,1.9.5.5.3,1,.8,1.3,1.3.3.6.4,1.2.4,1.9s-.2,1.3-.5,1.9c-.3.6-.8,1-1.3,1.3-.6.3-1.2.5-2,.5Z"/>
    <path class="st1" d="M208.2,326.8l-2.8-10.7h1.4l2.2,8.9,2.2-8.9h1.5l2.2,8.9,2.2-8.9h1.4l-2.8,10.7h-1.6l-2.1-8.2-2.1,8.2h-1.6Z"/>
    <path class="st1" d="M222.8,326.9c-.8,0-1.4-.2-1.9-.5s-1-.8-1.3-1.4-.4-1.4-.4-2.2.1-1.6.4-2.2.7-1.1,1.2-1.4,1.2-.5,1.9-.5,1.3.2,1.8.5c.5.3.9.8,1.2,1.4s.4,1.4.4,2.3v.4h-5.8c0,.8.3,1.5.7,1.9.4.4,1,.6,1.6.6s.9-.1,1.3-.4c.3-.2.6-.6.7-1h1.3c-.2.8-.6,1.4-1.2,1.9-.6.5-1.3.7-2.1.7ZM220.4,322.1h4.4c0-.8-.3-1.3-.7-1.7-.4-.4-.9-.5-1.5-.5s-1.1.2-1.5.6c-.4.4-.6.9-.8,1.7Z"/>
    <path class="st1" d="M231.6,326.9c-.5,0-1-.1-1.5-.4s-.8-.6-1-1v1.2h-1.2v-10.7h1.3v3.8c.2-.3.5-.6.9-.9s.9-.4,1.5-.4,1.3.2,1.8.5.9.8,1.2,1.4.4,1.4.4,2.2-.1,1.6-.4,2.2-.7,1.1-1.2,1.4-1.1.5-1.8.5ZM231.5,325.7c.7,0,1.2-.3,1.6-.8.4-.5.6-1.2.6-2.2s-.2-1.6-.6-2.2c-.4-.5-.9-.8-1.6-.8s-.9.1-1.3.4c-.4.2-.6.6-.8,1-.2.4-.3,1-.3,1.6s0,1.1.3,1.6c.2.4.5.8.8,1,.3.2.8.4,1.2.4Z"/>
    <path class="st1" d="M236.9,326.8v-10.7h3.3c1.6,0,2.9.5,3.8,1.4.9.9,1.3,2.2,1.3,4s-.4,3-1.3,3.9-2.1,1.4-3.7,1.4h-3.4ZM238.2,325.5h2c1.2,0,2.2-.3,2.8-1s.9-1.7.9-3-.3-2.4-.9-3.1c-.6-.7-1.6-1-2.8-1h-2v8.1Z"/>
    <path class="st1" d="M250.5,326.9c-.8,0-1.4-.2-1.9-.5s-1-.8-1.3-1.4-.4-1.4-.4-2.2.1-1.6.4-2.2.7-1.1,1.2-1.4,1.2-.5,1.9-.5,1.3.2,1.8.5c.5.3.9.8,1.2,1.4s.4,1.4.4,2.3v.4h-5.8c0,.8.3,1.5.7,1.9.4.4,1,.6,1.6.6s.9-.1,1.3-.4c.3-.2.6-.6.7-1h1.3c-.2.8-.6,1.4-1.2,1.9-.6.5-1.3.7-2.1.7ZM248.1,322.1h4.4c0-.8-.3-1.3-.7-1.7-.4-.4-.9-.5-1.5-.5s-1.1.2-1.5.6c-.4.4-.6.9-.8,1.7Z"/>
    <path class="st1" d="M258.5,326.9c-.7,0-1.3-.1-1.8-.3-.5-.2-.9-.5-1.2-1-.3-.4-.4-.9-.5-1.4h1.3c0,.4.3.8.6,1.1.3.3.8.4,1.5.4s1,0,1.3-.3.5-.5.5-.8,0-.4-.1-.5c-.1-.1-.3-.3-.6-.4-.3-.1-.7-.2-1.3-.3-.8-.1-1.4-.3-1.8-.5s-.7-.5-.9-.8c-.2-.3-.3-.7-.3-1.1,0-.7.3-1.3.8-1.7.5-.5,1.3-.7,2.2-.7s1.2.1,1.6.4c.4.2.8.5,1.1.9s.4.8.5,1.3h-1.3c0-.2-.2-.4-.3-.7-.2-.2-.4-.4-.6-.5-.3-.1-.6-.2-.9-.2-.6,0-1,.1-1.3.3-.3.2-.4.5-.4.8s0,.5.2.6.3.3.6.4c.3.1.7.2,1.1.3.8.1,1.4.3,1.9.5.4.2.8.4.9.7.2.3.3.6.3,1.1s-.1.9-.4,1.3c-.3.3-.6.6-1.1.8s-1,.3-1.6.3Z"/>
    <path class="st1" d="M263.3,317.6v-1.5h1.3v1.5h-1.3ZM263.3,326.8v-8h1.3v8h-1.3Z"/>
    <path class="st1" d="M269.9,329.2c-.6,0-1.1,0-1.5-.3-.5-.2-.8-.5-1.2-.8-.3-.4-.5-.8-.6-1.2h1.3c.1.3.3.6.6.8.3.2.8.3,1.4.3s1.3-.1,1.7-.4c.4-.3.6-.7.6-1.3v-1.3c-.2.4-.5.8-.9,1s-.9.4-1.4.4-1.3-.2-1.8-.5c-.5-.3-.9-.8-1.2-1.4-.3-.6-.4-1.2-.4-2s.1-1.4.4-2,.7-1,1.2-1.4c.5-.3,1.1-.5,1.8-.5s1.1.1,1.5.4c.4.3.8.6.9,1v-1.3h1.2v7.4c0,.6-.1,1.2-.4,1.6-.3.4-.7.8-1.2,1-.5.2-1.1.4-1.9.4ZM269.8,325.1c.7,0,1.2-.2,1.6-.7.4-.5.6-1.1.6-1.9,0-.5,0-1-.3-1.4-.2-.4-.5-.7-.8-.9s-.7-.3-1.2-.3c-.7,0-1.2.2-1.6.7-.4.5-.6,1.1-.6,1.9s.2,1.5.6,1.9c.4.5.9.7,1.6.7Z"/>
    <path class="st1" d="M275.8,326.8v-8h1.2v2s-.1-.1-.1-.1c0-.5.3-.9.5-1.2.2-.3.6-.5.9-.7.4-.1.7-.2,1.1-.2.6,0,1.1.1,1.5.4.4.3.7.6.9,1.1s.3,1,.3,1.5v5.1h-1.3v-4.8c0-.5,0-.9-.2-1.2-.1-.3-.3-.6-.5-.8-.2-.2-.6-.3-1-.3-.6,0-1.1.2-1.5.6-.4.4-.6.9-.6,1.7v4.8h-1.3Z"/>
    <path class="st1" d="M283.9,323v-1.2h5v1.2h-5Z"/>
    <path class="st1" d="M289.9,326.8l3.8-10.7h1.7l3.8,10.7h-1.4l-1.1-3h-4.5l-1.1,3h-1.4ZM292.8,322.5h3.6l-1.8-5.2-1.8,5.2Z"/>
    <path class="st1" d="M302,326.8c-.5,0-.8-.1-1.1-.4-.3-.2-.4-.6-.4-1.1v-9.2h1.3v9c0,.2,0,.3.1.4,0,0,.2.1.4.1h.7v1.1h-.9Z"/>
    <path class="st1" d="M307.5,326.9c-.7,0-1.4-.2-1.9-.5-.5-.3-1-.8-1.3-1.4-.3-.6-.5-1.4-.5-2.2s.1-1.6.5-2.2c.3-.6.7-1.1,1.3-1.4.5-.3,1.2-.5,1.9-.5s1.2.1,1.6.3c.5.2.9.5,1.2.9s.5.9.6,1.5h-1.3c0-.4-.3-.8-.7-1.1-.4-.3-.8-.4-1.4-.4s-1.3.3-1.7.8-.6,1.2-.6,2.2.2,1.6.6,2.2c.4.5,1,.8,1.7.8s1-.2,1.4-.5.6-.8.7-1.4h1.3c0,.7-.3,1.2-.6,1.6-.3.4-.7.8-1.2,1-.5.2-1,.4-1.6.4Z"/>
    <path class="st1" d="M315.5,326.9c-.7,0-1.4-.2-1.9-.5s-1-.8-1.3-1.4c-.3-.6-.5-1.4-.5-2.2s.1-1.6.5-2.2c.3-.6.7-1.1,1.3-1.4s1.2-.5,1.9-.5,1.4.2,1.9.5c.5.3,1,.8,1.3,1.4.3.6.4,1.4.4,2.2s-.1,1.6-.4,2.2c-.3.6-.7,1.1-1.3,1.4-.5.3-1.2.5-1.9.5ZM315.5,325.7c.7,0,1.3-.3,1.7-.8.4-.5.6-1.2.6-2.2s-.2-1.6-.6-2.2c-.4-.5-1-.8-1.7-.8s-1.3.3-1.7.8-.6,1.2-.6,2.2.2,1.6.6,2.2c.4.5,1,.8,1.7.8Z"/>
    <path class="st1" d="M320.9,326.8v-8h1.1v2c0,0,0,0,0,0,0-.7.3-1.2.7-1.5s.8-.5,1.3-.5h.8v1.2h-.8c-.4,0-.7,0-1,.2-.3.1-.5.4-.6.6-.1.3-.2.6-.2,1.1v4.8h-1.3Z"/>
    <path class="st1" d="M334.5,327c-1,0-1.9-.2-2.6-.7-.7-.5-1.3-1.1-1.6-2s-.6-1.8-.6-2.9.2-2,.6-2.9.9-1.5,1.6-2c.7-.5,1.6-.7,2.6-.7s1.6.2,2.2.5,1,.7,1.4,1.3c.3.5.6,1.1.7,1.8h-1.3c-.1-.6-.4-1.2-.9-1.6s-1.1-.7-2-.7-1.5.2-2,.6c-.5.4-.9.9-1.1,1.6-.2.7-.4,1.4-.4,2.1s.1,1.5.4,2.2c.2.6.6,1.2,1.1,1.5s1.2.6,2,.6,1.2-.1,1.6-.4.8-.7,1.1-1.1c.2-.5.4-1,.4-1.6h-3.1v-1.2h4.3v5.4h-1v-2.5c0,0,0,.2,0,.2-.1.5-.3.9-.7,1.3-.3.4-.7.7-1.2.9-.5.2-1,.3-1.5.3Z"/>
    <path class="st1" d="M340.8,326.8v-8h1.1v2c0,0,0,0,0,0,0-.7.3-1.2.7-1.5s.8-.5,1.3-.5h.8v1.2h-.8c-.4,0-.7,0-1,.2-.3.1-.5.4-.6.6-.1.3-.2.6-.2,1.1v4.8h-1.3Z"/>
    <path class="st1" d="M349,326.9c-.7,0-1.4-.2-1.9-.5s-1-.8-1.3-1.4c-.3-.6-.5-1.4-.5-2.2s.1-1.6.5-2.2c.3-.6.7-1.1,1.3-1.4s1.2-.5,1.9-.5,1.4.2,1.9.5c.5.3,1,.8,1.3,1.4.3.6.4,1.4.4,2.2s-.1,1.6-.4,2.2c-.3.6-.7,1.1-1.3,1.4-.5.3-1.2.5-1.9.5ZM349,325.7c.7,0,1.3-.3,1.7-.8.4-.5.6-1.2.6-2.2s-.2-1.6-.6-2.2c-.4-.5-1-.8-1.7-.8s-1.3.3-1.7.8-.6,1.2-.6,2.2.2,1.6.6,2.2c.4.5,1,.8,1.7.8Z"/>
    <path class="st1" d="M357,326.9c-.8,0-1.4-.3-1.9-.8-.5-.5-.7-1.3-.7-2.2v-5.1h1.3v4.8c0,.8.1,1.3.4,1.7.3.4.7.5,1.3.5s1.1-.2,1.5-.6c.4-.4.5-1,.5-1.7v-4.7h1.3v8h-1.2v-2h.2c-.2.8-.5,1.3-.9,1.6s-1,.5-1.7.5Z"/>
    <path class="st1" d="M363,329v-10.2h1.2v1.7s-.2,0-.2,0c.2-.6.5-1,1-1.3.5-.3,1-.5,1.6-.5s1.4.2,1.9.6.9.9,1.1,1.5.4,1.3.4,2-.1,1.4-.4,2c-.2.6-.6,1.1-1.1,1.5-.5.4-1.2.6-1.9.6s-.8,0-1.1-.2c-.4-.1-.7-.3-.9-.6s-.4-.5-.5-.9l.2-.2v4h-1.3ZM366.5,325.7c.7,0,1.2-.3,1.6-.8.4-.5.6-1.2.6-2.2s-.2-1.7-.6-2.2c-.4-.5-.9-.8-1.6-.8s-.9.1-1.2.3c-.3.2-.6.5-.8,1-.2.4-.3,1-.3,1.6s0,1.2.3,1.6c.2.4.4.8.8,1,.3.2.7.3,1.2.3Z"/>
  </g>
</svg>